<svg xmlns="http://www.w3.org/2000/svg" width="512" height="512" viewBox="0 0 512 512" fill="none">
  <title>Platform</title>
  <rect width="480" height="480" x="16" y="16" fill="#f5f5f6" stroke="#d9dade" stroke-width="2" rx="112"/>
  <g transform="translate(96 81) scale(5)">
    <g fill="#18191d">
      <path d="M8 26V16a8 8 0 0 1 8-8h10v10h-4a4 4 0 0 0-4 4v4H8Z"/>
      <path d="M8 26V16a8 8 0 0 1 8-8h10v10h-4a4 4 0 0 0-4 4v4H8Z" transform="translate(64) scale(-1 1)"/>
      <path d="M8 26V16a8 8 0 0 1 8-8h10v10h-4a4 4 0 0 0-4 4v4H8Z" transform="translate(64 64) scale(-1 -1)"/>
      <path d="M8 26V16a8 8 0 0 1 8-8h10v10h-4a4 4 0 0 0-4 4v4H8Z" transform="translate(0 64) scale(1 -1)"/>
      <path d="M8 48h18v10a4 4 0 0 1-4 4H12a4 4 0 0 1-4-4V48Z"/>
    </g>
    <rect width="16" height="16" x="24" y="24" fill="#42cfe0" rx="4"/>
  </g>
</svg>
