<?xml version="1.0" encoding="UTF-8" standalone="no"?>
<svg
   width="180"
   height="50"
   viewBox="0 0 180 50"
   version="1.1"
   id="svg2"
   xmlns="http://www.w3.org/2000/svg"
   xmlns:svg="http://www.w3.org/2000/svg">
  <defs
     id="defs2" />
  <title
     id="title1">Platform</title>
  <g transform="translate(0 5) scale(.625)">
    <path fill="#f5f5f6" d="M8 23V16a8 8 0 0 1 8-8h10v10h-4a4 4 0 0 0-4 4v1H8Z"/>
    <path fill="#f5f5f6" d="M38 8h4a14 14 0 0 1 14 14v4H46v-3a5 5 0 0 0-5-5h-3V8Z"/>
    <path fill="#f5f5f6" d="M46 38h10v2a12 12 0 0 1-12 12h-6v-6h3a5 5 0 0 0 5-5v-3Z"/>
    <path fill="#f5f5f6" d="M8 38h10v3a5 5 0 0 0 5 5h3v12H16a8 8 0 0 1-8-8V38Z"/>
    <rect width="16" height="16" x="24" y="24" fill="#42cfe0" rx="4"/>
  </g>
  <g
     fill="#f5f5f6"
     transform="translate(50)"
     id="g2">
    <path
       d="m 12.88,15.528 q 3.168,0 5.088,2.208 1.952,2.208 1.952,6.656 0,4.384 -1.952,6.656 -1.92,2.272 -5.12,2.272 -1.984,0 -3.296,-0.736 -1.28,-0.768 -2.016,-1.76 H 7.344 q 0.064,0.544 0.128,1.376 0.064,0.832 0.064,1.44 v 7.04 H 4.72 V 15.848 h 2.304 l 0.384,2.336 h 0.128 q 0.768,-1.12 2.016,-1.888 1.248,-0.768 3.328,-0.768 z m -0.512,2.368 q -2.624,0 -3.712,1.472 -1.056,1.472 -1.12,4.48 v 0.544 q 0,3.168 1.024,4.896 1.056,1.696 3.872,1.696 1.568,0 2.56,-0.864 1.024,-0.864 1.504,-2.336 0.512,-1.504 0.512,-3.424 0,-2.944 -1.152,-4.704 -1.12,-1.76 -3.488,-1.76 z M 26.515992,33 h -2.816 V 8.68 h 2.816 z M 37.751975,15.56 q 3.136,0 4.64,1.376 1.504,1.376 1.504,4.384 V 33 h -2.048 l -0.544,-2.432 h -0.128 q -1.12,1.408 -2.368,2.08 -1.216,0.672 -3.392,0.672 -2.336,0 -3.872,-1.216 -1.536,-1.248 -1.536,-3.872 0,-2.56 2.016,-3.936 2.016,-1.408 6.208,-1.536 l 2.912,-0.096 V 21.64 q 0,-2.144 -0.928,-2.976 -0.928,-0.832 -2.624,-0.832 -1.344,0 -2.56,0.416 -1.216,0.384 -2.272,0.896 l -0.864,-2.112 q 1.12,-0.608 2.656,-1.024 1.536,-0.448 3.2,-0.448 z m 0.832,9.152 q -3.2,0.128 -4.448,1.024 -1.216,0.896 -1.216,2.528 0,1.44 0.864,2.112 0.896,0.672 2.272,0.672 2.176,0 3.616,-1.184 1.44,-1.216 1.44,-3.712 v -1.536 z m 15.652027,6.304 q 0.64,0 1.312,-0.096 0.672,-0.128 1.088,-0.256 v 2.144 q -0.448,0.224 -1.28,0.352 -0.832,0.16 -1.6,0.16 -1.344,0 -2.496,-0.448 -1.12,-0.48 -1.824,-1.632 -0.704,-1.152 -0.704,-3.232 v -9.984 h -2.432 V 16.68 l 2.464,-1.12 1.12,-3.648 h 1.664 v 3.936 h 4.96 v 2.176 h -4.96 v 9.92 q 0,1.568 0.736,2.336 0.768,0.736 1.952,0.736 z M 67.264003,18.024 h -4.32 V 33 h -2.816 V 18.024 h -3.008 v -1.312 l 3.008,-0.96 V 14.76 q 0,-3.328 1.472,-4.768 1.472,-1.472 4.096,-1.472 1.024,0 1.856,0.192 0.864,0.16 1.472,0.384 l -0.736,2.208 q -0.512,-0.16 -1.184,-0.32 -0.672,-0.16 -1.376,-0.16 -1.408,0 -2.112,0.96 -0.672,0.928 -0.672,2.944 v 1.12 h 4.32 z m 17.315995,6.368 q 0,4.256 -2.176,6.592 -2.144,2.336 -5.824,2.336 -2.272,0 -4.064,-1.024 -1.76,-1.056 -2.784,-3.04 -1.024,-2.016 -1.024,-4.864 0,-4.256 2.144,-6.56 2.144,-2.304 5.824,-2.304 2.336,0 4.096,1.056 1.792,1.024 2.784,3.008 1.024,1.952 1.024,4.8 z m -12.96,0 q 0,3.04 1.184,4.832 1.216,1.76 3.84,1.76 2.592,0 3.808,-1.76 1.216,-1.792 1.216,-4.832 0,-3.04 -1.216,-4.768 -1.216,-1.728 -3.84,-1.728 -2.624,0 -3.808,1.728 -1.184,1.728 -1.184,4.768 z m 24.707988,-8.864 q 0.48,0 1.024,0.064 0.576,0.032 0.992,0.128 l -0.352,2.592 q -0.416,-0.096 -0.928,-0.16 -0.48,-0.064 -0.928,-0.064 -1.312,0 -2.464,0.736 -1.152,0.704 -1.856,2.016 -0.672,1.28 -0.672,3.008 V 33 h -2.816 V 15.848 h 2.304 l 0.32,3.136 h 0.128 q 0.832,-1.408 2.144,-2.432 1.312,-1.024 3.104,-1.024 z m 23.332004,0 q 2.912,0 4.352,1.504 1.44,1.472 1.44,4.8 V 33 h -2.784 V 21.96 q 0,-4.064 -3.488,-4.064 -2.496,0 -3.584,1.44 -1.056,1.44 -1.056,4.192 V 33 h -2.784 V 21.96 q 0,-4.064 -3.52,-4.064 -2.592,0 -3.584,1.6 -0.992,1.6 -0.992,4.608 V 33 h -2.816 V 15.848 h 2.272 l 0.416,2.336 h 0.16 q 0.8,-1.344 2.144,-1.984 1.376,-0.672 2.912,-0.672 4.032,0 5.248,2.88 h 0.16 q 0.864,-1.472 2.336,-2.176 1.504,-0.704 3.168,-0.704 z"
       id="text1"
       style="font-size:32px;font-family:'Noto Sans';letter-spacing:-0.7"
       aria-label="platform" />
  </g>
</svg>
