<svg xmlns="http://www.w3.org/2000/svg" width="64" height="64" viewBox="0 0 64 64" fill="none">
  <title>Platform</title>
  <path fill="#18191d" d="M8 23V16a8 8 0 0 1 8-8h10v10h-4a4 4 0 0 0-4 4v1H8Z"/>
  <path fill="#18191d" d="M38 8h4a14 14 0 0 1 14 14v4H46v-3a5 5 0 0 0-5-5h-3V8Z"/>
  <path fill="#18191d" d="M46 38h10v2a12 12 0 0 1-12 12h-6v-6h3a5 5 0 0 0 5-5v-3Z"/>
  <path fill="#18191d" d="M8 38h10v3a5 5 0 0 0 5 5h3v12H16a8 8 0 0 1-8-8V38Z"/>
  <rect width="16" height="16" x="24" y="24" fill="#42cfe0" rx="4"/>
</svg>
